<?xml version="1.0" encoding="utf-8"?>
<!-- Generator: Adobe Illustrator 19.1.0, SVG Export Plug-In . SVG Version: 6.00 Build 0)  -->
<!DOCTYPE svg PUBLIC "-//W3C//DTD SVG 1.1//EN" "http://www.w3.org/Graphics/SVG/1.1/DTD/svg11.dtd">
<svg version="1.1" id="Layer_1" xmlns="http://www.w3.org/2000/svg" xmlns:xlink="http://www.w3.org/1999/xlink" x="0px" y="0px"
	 viewBox="0 0 144 144" enable-background="new 0 0 144 144" xml:space="preserve">
<g>
	<path fill="#0089A1" d="M21.7,72c0,13.6,5.4,25.9,14.1,34.9C37.7,83.6,55.9,84,55.9,84c0.9,0,4.5,5.8,5.4,6.8
		c1.3,1.4,2.6,2.9,4.1,4.1c1.4,1.2,3,2.5,4.9,2.9c0.6,0.1,1.2,0.1,1.8,0.1V21.7C44.2,21.7,21.7,44.2,21.7,72z"/>
	<path fill="#4B9FB5" d="M72,21.7v76.2c6.6-0.3,11.6-9.4,14.9-13.9c0,0,18.7-0.4,20.2,24c9.4-9.1,15.2-21.9,15.2-36
		C122.3,44.2,99.8,21.7,72,21.7z"/>
	<path fill="#7C2F3C" d="M68.7,38c-7-1.7-14,1.7-17.8,5.9C44.2,51.2,46,61.6,47,67.2c1.4,7.9,4.9,13.7,7.3,16.9
		c5.2,6.1,10.3,12.2,15.5,18.2V85.3L72,71.4V39.2C71,38.7,69.9,38.3,68.7,38z"/>
	<path fill="#7C2F3C" d="M72,39.2v32.2l4.7-28.8C75.8,41.7,74.2,40.3,72,39.2z"/>
	<path fill="#7C2F3C" d="M71.4,45l-3.7,44.1v14.7c1.5-0.8,3-1.6,4.3-2.4V44.4C71.8,44.6,71.6,44.8,71.4,45z"/>
	<path fill="#8D4B50" d="M94.6,46.2c-0.8-0.9-7.1-7.5-15.2-5.9c-3.5,0.7-6,2.7-7.4,4v57.1c8.7-5.3,14.2-11.2,17.4-15.1
		c3.5-4.3,7-8.8,8.8-15.8C99,67.4,102.3,54.6,94.6,46.2z"/>
	<path fill="#FCD1C8" d="M71.4,41.7c0,0-18.6-1.6-17.1,20.2c1,14.4,8.2,20.8,12.9,23.4c1.5,0.8,3.2,1.2,4.8,1.1V41.7
		C71.6,41.7,71.4,41.7,71.4,41.7z"/>
	<path fill="#FDE5DF" d="M72,41.7v44.7c1.2-0.1,2.5-0.4,3.6-1.1c4.7-2.7,11.8-9.1,12.9-23.4C89.8,42.5,75.2,41.7,72,41.7z"/>
	<path fill="#7C2F3C" d="M58.3,44c-7.5,4.9-11.3,12.2-8.6,16.3c2.7,4.1,10.9,3.5,18.4-1.4c1.5-1,2.8-2,3.9-3.1V40
		C68.2,39.5,63.1,40.9,58.3,44z"/>
	<path fill="#8D4B50" d="M76.7,42.6c-1-1.5-2.6-2.3-4.7-2.6v15.8C76.8,51.3,78.9,45.9,76.7,42.6z"/>
	
		<ellipse transform="matrix(-0.7395 -0.6732 0.6732 -0.7395 112.7038 146.9182)" fill="#8D4B50" cx="84.8" cy="51.7" rx="12.9" ry="5.7"/>
	<rect x="72" y="79.1" fill="#FDE5DF" width="7.8" height="21.6"/>
	<rect x="64.2" y="79.1" fill="#FCD1C8" width="7.8" height="21.6"/>
	<path fill="#EF8C93" d="M70.2,97.8c-1.9-0.4-3.5-1.7-4.9-2.9c-1.5-1.3-2.8-2.7-4.1-4.1c-0.8-0.9-4.5-6.8-5.4-6.8
		c0,0-18.1-0.3-20.1,22.9c9.2,9.5,22,15.4,36.2,15.4V97.9C71.4,97.9,70.8,97.9,70.2,97.8z"/>
	<path fill="#F3A9AB" d="M86.9,84c-3.3,4.5-8.3,13.6-14.9,13.9v24.4c13.7,0,26.1-5.5,35.1-14.3C105.6,83.6,86.9,84,86.9,84z"/>
	<path fill="#7C2F3C" d="M48.8,73.4c7.6,15.9,9.8,29,4.8,32.8c-0.9,0.7-2.3,1.3-4.6,1.1c0,0,15,7.8,15.1-15.8l-4.5-9.1
		C56,79.4,52.4,76.4,48.8,73.4z"/>
	<path fill="#7C2F3C" d="M57.7,89.3c0,0,8.1,23.9-5.2,23.2c0.9,0.4,2.3,0.8,3.9,1c0,0,2.6,0.2,5.1-0.7c5.8-2.1,11-14.8,6.6-24.1
		c-1.2-2.4-2.7-4.1-3.9-5.2C62.1,85.4,59.9,87.3,57.7,89.3z"/>
	<path fill="#8D4B50" d="M86.6,87.9c0,0-8.1,23.9,5.2,23.2c-0.9,0.4-2.3,0.8-3.9,1c0,0-2.6,0.2-5.1-0.7c-5.8-2.1-11-14.8-6.6-24.1
		c1.2-2.4,2.7-4.1,3.9-5.2C82.2,84,84.4,85.9,86.6,87.9z"/>
	<path fill="#8D4B50" d="M96.5,73.4c-7.6,15.9-9.8,29-4.8,32.8c0.9,0.7,2.3,1.3,4.6,1.1c0,0-15,7.8-15.1-15.8l4.5-9.1
		C89.3,79.4,92.9,76.4,96.5,73.4z"/>
	<path fill="#7C2F3C" d="M72,75.7c-0.3-0.4-0.7-0.7-1.3-0.7c0,0-1.1-0.3-3.4,2.1c0,0,1.4,2,4,2.3c0.2,0,0.5,0,0.7,0h0L72,75.7
		L72,75.7z"/>
	<path fill="#8D4B50" d="M73.3,75c-0.5,0-1,0.3-1.3,0.7v3.7c0.2,0,0.5,0,0.7,0c2.6-0.3,4-2.3,4-2.3C74.4,74.7,73.3,75,73.3,75z"/>
</g>
</svg>
