<?xml version="1.0" encoding="utf-8"?>
<!-- Generator: Adobe Illustrator 19.1.0, SVG Export Plug-In . SVG Version: 6.00 Build 0)  -->
<!DOCTYPE svg PUBLIC "-//W3C//DTD SVG 1.1//EN" "http://www.w3.org/Graphics/SVG/1.1/DTD/svg11.dtd">
<svg version="1.1" id="Layer_1" xmlns="http://www.w3.org/2000/svg" xmlns:xlink="http://www.w3.org/1999/xlink" x="0px" y="0px"
	 viewBox="0 0 144 144" enable-background="new 0 0 144 144" xml:space="preserve">
<g>
	<path fill="#0489A1" d="M61.9,61.3c0-4.9-3.3-4.9-3.3-4.9H45v10.4h12.8C60,66.9,61.9,66.2,61.9,61.3L61.9,61.3z M61.9,61.3"/>
	<path fill="#0489A1" d="M58.6,74.1H45v12.5h13c2-0.1,5.6-0.7,5.6-6.1C63.6,74,58.6,74.1,58.6,74.1L58.6,74.1z M58.6,74.1"/>
	<path fill="#0489A1" d="M93.5,66.9c-7.2,0-8.2,7.2-8.2,7.2h15.4C100.6,74.1,100.7,66.9,93.5,66.9L93.5,66.9z M93.5,66.9"/>
	<path fill="#0489A1" d="M72,20.5c-28.5,0-51.5,23.1-51.5,51.5c0,28.5,23.1,51.5,51.5,51.5c28.5,0,51.5-23.1,51.5-51.5
		C123.5,43.5,100.5,20.5,72,20.5L72,20.5z M83.2,50.9h19.3v5.8H83.2V50.9z M73.5,81.1c0,14.3-14.9,13.8-14.9,13.8H34.3V48.1h24.3
		c7.4,0,13.2,4.1,13.2,12.5c0,8.4-7.1,8.9-7.1,8.9C74.1,69.5,73.5,81.1,73.5,81.1L73.5,81.1z M93.6,88.5c7.8,0,7.5-5,7.5-5h8.2
		c0,13.4-16,12.4-16,12.4c-19.2,0-18-17.9-18-17.9s0-18,18-18c18.9,0,16.3,20.3,16.3,20.3H85.3C85.3,89,93.6,88.5,93.6,88.5
		L93.6,88.5z M93.6,88.5"/>
</g>
</svg>
