<?xml version="1.0" encoding="utf-8"?>
<!-- Generator: Adobe Illustrator 19.1.0, SVG Export Plug-In . SVG Version: 6.00 Build 0)  -->
<!DOCTYPE svg PUBLIC "-//W3C//DTD SVG 1.1//EN" "http://www.w3.org/Graphics/SVG/1.1/DTD/svg11.dtd">
<svg version="1.1" id="Layer_1" xmlns="http://www.w3.org/2000/svg" xmlns:xlink="http://www.w3.org/1999/xlink" x="0px" y="0px"
	 viewBox="0 0 144 144" enable-background="new 0 0 144 144" xml:space="preserve">
<g>
	<path fill="#0089A1" d="M21.7,72c0,27.8,22.5,50.3,50.2,50.3V21.7C44.2,21.7,21.7,44.2,21.7,72z"/>
	<path fill="#4B9FB5" d="M72,21.7C72,21.7,71.9,21.7,72,21.7l-0.1,100.7c0,0,0.1,0,0.1,0c27.8,0,50.3-22.5,50.3-50.3
		C122.3,44.2,99.8,21.7,72,21.7z"/>
	<path fill="#F1F2F2" d="M61.9,39c-3.1,0-5.7,2.6-5.7,5.7v58.5c0,3.1,2.6,5.7,5.7,5.7h10V39H61.9z"/>
	<path fill="#FFFFFF" d="M81.9,39h-10v69.9h10c3.1,0,5.7-2.6,5.7-5.7V44.6C87.6,41.5,85.1,39,81.9,39z"/>
	<rect x="58.5" y="50.1" fill="#27273A" width="13.4" height="47.5"/>
	<rect x="71.9" y="50.1" fill="#494655" width="13.4" height="47.5"/>
	<path fill="#E6E7E8" d="M69.8,102.9c0,1.1,0.9,2.1,2.1,2.1v-4.1C70.8,100.9,69.8,101.8,69.8,102.9z"/>
	<path fill="#F1F2F2" d="M71.9,100.9v4.1c1.1,0,2.1-0.9,2.1-2.1C74,101.8,73.1,100.9,71.9,100.9z"/>
	<path fill="#27273A" d="M68.5,45.6c-0.3,0-0.6,0.3-0.6,0.6c0,0.3,0.3,0.6,0.6,0.6h3.4v-1.2H68.5z"/>
	<path fill="#494655" d="M75.3,45.6h-3.4v1.2h3.4c0.3,0,0.6-0.3,0.6-0.6C75.9,45.9,75.7,45.6,75.3,45.6z"/>
	<path fill="#27273A" d="M71.4,43c0,0.3,0.2,0.6,0.5,0.6v-1.2C71.6,42.4,71.4,42.7,71.4,43z"/>
	<path fill="#494655" d="M72,42.4C72,42.4,71.9,42.4,72,42.4l-0.1,1.2c0,0,0,0,0.1,0c0.3,0,0.6-0.3,0.6-0.6
		C72.6,42.6,72.3,42.4,72,42.4z"/>
	<circle fill="#27273A" cx="66.5" cy="46.2" r="0.5"/>
</g>
</svg>
