<?xml version="1.0" encoding="utf-8"?>
<!-- Generator: Adobe Illustrator 19.1.0, SVG Export Plug-In . SVG Version: 6.00 Build 0)  -->
<!DOCTYPE svg PUBLIC "-//W3C//DTD SVG 1.1//EN" "http://www.w3.org/Graphics/SVG/1.1/DTD/svg11.dtd">
<svg version="1.1" id="Layer_1" xmlns="http://www.w3.org/2000/svg" xmlns:xlink="http://www.w3.org/1999/xlink" x="0px" y="0px"
	 viewBox="0 0 144 144" enable-background="new 0 0 144 144" xml:space="preserve">
<g>
	<path fill="#0489A1" d="M123.5,72c0,28.4-23.1,51.5-51.6,51.5c-28.4,0-51.4-23-51.5-51.5c-0.1-28.5,23-51.6,51.5-51.6
		C100.4,20.4,123.5,43.5,123.5,72z M72,98.2c6.8,0,13.6,0,20.3,0c3.4,0,5.9-2.4,5.9-5.8c0-13.5,0-27,0-40.6c0-3.5-2.5-5.9-5.9-5.9
		c-13.5,0-27,0-40.6,0c-3.4,0-5.8,2.5-5.8,5.9c0,13.5,0,27,0,40.6c0,3.6,2.3,5.9,5.9,5.9C58.5,98.2,65.2,98.2,72,98.2z"/>
	<path fill="#0489A1" d="M51.4,67.1c1.7,0,3.3,0,4.9,0c-1.8,8.1,0.4,14.7,7.6,19c5.7,3.4,11.7,3.1,17.2-0.7
		c6.4-4.4,8.2-10.7,6.5-18.3c1.6,0,3.2,0,4.9,0c0,0.4,0.1,0.8,0.1,1.2c0,7.1,0,14.2,0,21.3c0,2.2-0.7,2.9-2.9,2.9
		c-11.8,0-23.6,0-35.4,0c-2.2,0-2.8-0.6-2.8-2.9c0-7.1,0-14.2,0-21.3C51.4,68,51.4,67.6,51.4,67.1z"/>
	<path fill="#0489A1" d="M61.4,72c0-5.9,4.7-10.6,10.6-10.7c5.8,0,10.6,4.7,10.7,10.6c0.1,5.8-4.7,10.6-10.5,10.6
		C66.1,82.6,61.4,78,61.4,72z"/>
	<path fill="#0489A1" d="M88,59.3c-0.8,0-1.6,0-2.5,0c-1.3,0-2.1-0.7-2.2-2c-0.1-1.8-0.1-3.5,0-5.3c0.1-1.2,0.9-1.9,2.2-2
		c1.6,0,3.1,0,4.7,0c1.4,0,2.3,0.8,2.3,2.2c0.1,1.6,0.1,3.2,0,4.8c-0.1,1.4-0.9,2.1-2.3,2.2C89.5,59.2,88.7,59.2,88,59.3
		C88,59.2,88,59.2,88,59.3z"/>
</g>
</svg>
