<?xml version="1.0" encoding="utf-8"?>
<!-- Generator: Adobe Illustrator 19.1.0, SVG Export Plug-In . SVG Version: 6.00 Build 0)  -->
<!DOCTYPE svg PUBLIC "-//W3C//DTD SVG 1.1//EN" "http://www.w3.org/Graphics/SVG/1.1/DTD/svg11.dtd">
<svg version="1.1" id="Layer_1" xmlns="http://www.w3.org/2000/svg" xmlns:xlink="http://www.w3.org/1999/xlink" x="0px" y="0px"
	 viewBox="0 0 612 792" enable-background="new 0 0 612 792" xml:space="preserve">
<circle fill="#EF8C93" cx="303.6" cy="417.1" r="169"/>
<path fill="none" stroke="#FFFFFF" stroke-width="5" stroke-linecap="round" stroke-linejoin="round" stroke-miterlimit="10" d="
	M299.4,491.8h2.7h20.5c0,0,9.1,0,10.1-8.8c1-8.6,12.4-23.9,21.5-42.6c7.4-15.3,11.2-23,12.5-33.4c0.9-6.9,3.8-29.5-12.8-49.6
	c-19.4-23.5-49.8-24.3-53.2-24.3h-0.9c-3.4,0.1-33.8,0.8-53.2,24.3c-16.5,20-13.6,42.7-12.8,49.6c1.3,10.5,5,18.1,12.5,33.4
	c9.1,18.7,20.5,34,21.5,42.6c1,8.8,10.1,8.8,10.1,8.8h20.5h2.7"/>
<path fill="#00AEEF" stroke="#00AEEF" stroke-width="6.2495" stroke-linecap="round" stroke-linejoin="round" stroke-miterlimit="10" d="
	M300.5,460.8"/>
<path fill="#00AEEF" stroke="#00AEEF" stroke-miterlimit="10" d="M725.6,513.5c0-4.5-3.3-8.2-7.7-8.9c-0.2-0.1-0.4-0.1-0.6-0.1H717
	c-0.2,0-0.5,0-0.7,0v0h-42.7c-1,0-1.8,0.8-1.8,1.8v0.2c0,1,0.8,1.8,1.8,1.8h42.7v0c3.1,0,5.5,2.4,5.5,5.3c0,2.9-2.5,5.3-5.5,5.3v0
	h-34v0c-5.2,0-9.4,4.1-9.4,9.1c0,5,4.2,9.1,9.4,9.1v0h14.5v20.2c0,0.8,0.7,1.5,1.5,1.5h0.6c0.8,0,1.5-0.7,1.5-1.5v-22.5
	c0-0.8-0.7-1.5-1.5-1.5h-0.4h-0.2h-16v0c-3.1,0-5.5-2.4-5.5-5.3c0-2.9,2.5-5.3,5.5-5.3v0h34v0c0.2,0,0.5,0,0.7,0h0.5
	c0.2,0,0.4-0.1,0.6-0.1C722.4,521.5,725.6,517.9,725.6,513.5z"/>
<path fill="#FFFFFF" d="M327,452.5c-1.5-1.4-3.6-1.8-5.5-1.4c-5.6,1.3-7,8.1-7.4,11.6c-0.6-0.3-1.3-0.5-1.7-0.7
	c-1.7-0.5-7.8-5.4-7.8-5.4c2.5-2.1,4.2-4.9,5.2-6.7c0.7-1.3,1-2.7,0.9-4.1c-0.4-5.1-4.2-7.3-6.8-8.2c-1.6-0.6-3.4-0.6-5.1,0
	c-2.3,0.8-5.5,2.6-6.5,6.4c-0.6,2.2-0.2,4.6,1,6.5c1,1.8,2.6,4.2,4.8,6c0,0-6,4.9-7.8,5.4c-0.5,0.1-1.1,0.4-1.7,0.7
	c-0.4-3.5-1.8-10.3-7.4-11.6c-2-0.5-4.1,0-5.5,1.4c-1.2,1.2-2.3,3.1-1.8,6.3c0.7,4.4,6,6.7,11.1,7l4.7,25.4l2.8,0l-3.6-25.6
	c0.9-0.1,1.7-0.4,2.4-0.7c5.4-2.2,9.9-7.1,9.9-7.1s4.8,4.9,10.2,7.1c0.7,0.3,1.5,0.5,2.4,0.7l-3.6,26.8l2.8-0.2l4.7-26.3
	c5.1-0.3,10.4-2.6,11.1-7C329.4,455.6,328.3,453.6,327,452.5z M284,461.6c0,0-4.1,0.3-5.7-1.3c-1.6-1.6-1.6-3.5-0.5-4.7
	c1.2-1.2,3.1-1.2,4.7,0.3C284.2,457.5,284,461.6,284,461.6z M301.3,453.5c0,0-4-3.7-4-6.7c0-3,1.9-4.8,4.1-4.8c2.2,0,4,1.9,4,4.9
	C305.4,449.9,301.3,453.5,301.3,453.5z M323.8,460.3c-1.6,1.6-5.7,1.3-5.7,1.3s-0.1-4.1,1.5-5.7c1.6-1.6,3.5-1.5,4.7-0.3
	C325.5,456.8,325.4,458.7,323.8,460.3z"/>
<path fill="#FFFFFF" d="M299.1,320.7v-25.6c0-1.2,1-2.2,2.2-2.2l0,0c1.2,0,2.2,1,2.2,2.2v25.6c0,1.2-1,2.2-2.2,2.2l0,0
	C300.1,323,299.1,322,299.1,320.7z"/>
<path fill="#FFFFFF" d="M299.1,288.1v-6.3c0-1.2,1-2.2,2.2-2.2l0,0c1.2,0,2.2,1,2.2,2.2v6.3c0,1.2-1,2.2-2.2,2.2l0,0
	C300.1,290.3,299.1,289.3,299.1,288.1z"/>
<path fill="#FFFFFF" d="M341.3,329.3l13-22.1c0.6-1.1,2-1.4,3.1-0.8l0,0c1.1,0.6,1.4,2,0.8,3.1l-13,22.1c-0.6,1.1-2,1.4-3.1,0.8l0,0
	C341,331.8,340.7,330.4,341.3,329.3z"/>
<path fill="#FFFFFF" d="M358,301.3l0.7-1.1c0.6-1.1,2-1.4,3.1-0.8l0,0c1.1,0.6,1.4,2,0.8,3.1l-0.7,1.1c-0.6,1.1-2,1.4-3.1,0.8l0,0
	C357.7,303.8,357.4,302.4,358,301.3z"/>
<path fill="#FFFFFF" d="M362.5,295.1l0.7-1.1c0.6-1.1,2-1.4,3.1-0.8h0c1.1,0.6,1.4,2,0.8,3.1l-0.7,1.1c-0.6,1.1-2,1.4-3.1,0.8l0,0
	C362.2,297.5,361.8,296.2,362.5,295.1z"/>
<path fill="#FFFFFF" d="M243,301.6l-0.7-1.1c-0.6-1.1-2-1.4-3.1-0.8l0,0c-1.1,0.6-1.4,2-0.8,3.1l0.7,1.1c0.6,1.1,2,1.4,3.1,0.8l0,0
	C243.3,304.1,243.7,302.7,243,301.6z"/>
<path fill="#FFFFFF" d="M238.6,295.4l-0.7-1.1c-0.6-1.1-2-1.4-3.1-0.8l0,0c-1.1,0.6-1.4,2-0.8,3.1l0.7,1.1c0.6,1.1,2,1.4,3.1,0.8
	l0,0C238.8,297.9,239.2,296.5,238.6,295.4z"/>
<path fill="#FFFFFF" d="M368.5,351.8l22.9-11.5c1.1-0.6,2.5-0.1,3,1l0,0c0.6,1.1,0.1,2.5-1,3l-22.9,11.5c-1.1,0.6-2.5,0.1-3-1l0,0
	C367,353.7,367.4,352.3,368.5,351.8z"/>
<path fill="#FFFFFF" d="M186,386.6h25.6c1.2,0,2.2-1,2.2-2.2l0,0c0-1.2-1-2.2-2.2-2.2H186c-1.2,0-2.2,1-2.2,2.2l0,0
	C183.7,385.6,184.7,386.6,186,386.6z"/>
<path fill="#FFFFFF" d="M218.3,386.6h3c1.2,0,2.2-1,2.2-2.2l0,0c0-1.2-1-2.2-2.2-2.2h-3c-1.2,0-2.2,1-2.2,2.2l0,0
	C216.1,385.6,217.1,386.6,218.3,386.6z"/>
<path fill="#FFFFFF" d="M412.4,386.6h-25.6c-1.2,0-2.2-1-2.2-2.2l0,0c0-1.2,1-2.2,2.2-2.2h25.6c1.2,0,2.2,1,2.2,2.2l0,0
	C414.6,385.6,413.6,386.6,412.4,386.6z"/>
<path fill="#FFFFFF" d="M380,386.6h-3c-1.2,0-2.2-1-2.2-2.2l0,0c0-1.2,1-2.2,2.2-2.2h3c1.2,0,2.2,1,2.2,2.2l0,0
	C382.3,385.6,381.3,386.6,380,386.6z"/>
<path fill="#FFFFFF" d="M259.7,329.3l-13-22.1c-0.6-1.1-2-1.4-3.1-0.8h0c-1.1,0.6-1.4,2-0.8,3.1l13,22.1c0.6,1.1,2,1.4,3.1,0.8l0,0
	C260,331.8,260.3,330.4,259.7,329.3z"/>
<path fill="#FFFFFF" d="M232.5,351.8l-22.9-11.5c-1.1-0.6-2.5-0.1-3,1l0,0c-0.6,1.1-0.1,2.5,1,3l22.9,11.5c1.1,0.6,2.5,0.1,3-1l0,0
	C234,353.7,233.6,352.3,232.5,351.8z"/>
<path fill="#FFFFFF" d="M203,337.5l-6.4-3.2c-1.1-0.6-2.5-0.1-3,1l0,0c-0.6,1.1-0.1,2.5,1,3l6.4,3.2c1.1,0.6,2.5,0.1,3-1l0,0
	C204.5,339.4,204.1,338,203,337.5z"/>
<path fill="#FFFFFF" d="M397.5,337.2l6.4-3.2c1.1-0.6,2.5-0.1,3,1v0c0.6,1.1,0.1,2.5-1,3l-6.4,3.2c-1.1,0.6-2.5,0.1-3-1v0
	C396,339.1,396.4,337.7,397.5,337.2z"/>
<line fill="none" stroke="#FFFFFF" stroke-width="5" stroke-linecap="round" stroke-miterlimit="10" x1="276" y1="492.2" x2="283.7" y2="519.2"/>
<line fill="none" stroke="#FFFFFF" stroke-width="5" stroke-linecap="round" stroke-miterlimit="10" x1="325.4" y1="492.2" x2="317.8" y2="519.2"/>
<ellipse fill="none" stroke="#FFFFFF" stroke-width="5.6615" stroke-linecap="round" stroke-miterlimit="10" cx="299.1" cy="526.9" rx="23.5" ry="10.4"/>
<path fill="#FFFFFF" d="M299.1,537.2c0,0-20.5,0.5-26.2-10.4l7.2,34.6c0.9,4.1,4.4,7,8.6,7h10.4h10.4c4.2,0,7.7-2.9,8.6-7l7.2-34.6
	C319.7,537.8,299.1,537.2,299.1,537.2z"/>
<path fill="#9FD2D5" stroke="#FFFFFF" stroke-width="5" stroke-linecap="round" stroke-linejoin="round" stroke-miterlimit="10" d="
	M304.4,377.4c-1.3,0-2.6,0.3-3.8,0.7c-2-3.5-7-6-12.8-6c-7.6,0-13.7,4.2-13.7,9.3c-7.6,0-13.7,4.2-13.7,9.3c0,5.1,6.1,9.3,13.7,9.3
	c2.4,0,4.6-0.4,6.6-1.1c2.5,2.1,6.3,3.4,10.6,3.4c6,0,11.1-2.6,13-6.2c0,0,0.1,0,0.1,0c5.4,0,9.8-4.2,9.8-9.3
	C314.3,381.6,309.9,377.4,304.4,377.4z"/>
<path fill="#9FD2D5" stroke="#FFFFFF" stroke-width="5" stroke-linecap="round" stroke-linejoin="round" stroke-miterlimit="10" d="
	M342.4,400.5c0-4.8-5.4-8.8-12.4-9.2c-1.5-4.9-6.5-8.6-12.4-8.6c-6.8,0-12.3,4.7-12.8,10.6c-2.1-0.6-4.4-1-6.8-1
	c-9.4,0-17,5.2-17,11.5c0,6.4,7.6,11.5,17,11.5c1.6,0,3.2-0.2,4.7-0.5c3.1,3,8.2,4.9,14,4.9c9,0,16.4-4.7,17-10.8
	C338.7,407.8,342.4,404.4,342.4,400.5z"/>
</svg>
