<?xml version="1.0" encoding="utf-8"?>
<!-- Generator: Adobe Illustrator 19.1.0, SVG Export Plug-In . SVG Version: 6.00 Build 0)  -->
<!DOCTYPE svg PUBLIC "-//W3C//DTD SVG 1.1//EN" "http://www.w3.org/Graphics/SVG/1.1/DTD/svg11.dtd">
<svg version="1.1" id="Layer_1" xmlns="http://www.w3.org/2000/svg" xmlns:xlink="http://www.w3.org/1999/xlink" x="0px" y="0px"
	 viewBox="0 0 144 144" enable-background="new 0 0 144 144" xml:space="preserve">
<path fill="#00AEEF" stroke="#00AEEF" stroke-miterlimit="10" d="M491.6,189.5c0-4.5-3.3-8.2-7.7-8.9c-0.2-0.1-0.4-0.1-0.6-0.1H483
	c-0.2,0-0.5,0-0.7,0v0h-42.7c-1,0-1.8,0.8-1.8,1.8v0.2c0,1,0.8,1.8,1.8,1.8h42.7v0c3.1,0,5.5,2.4,5.5,5.3c0,2.9-2.5,5.3-5.5,5.3v0
	h-34v0c-5.2,0-9.4,4.1-9.4,9.1c0,5,4.2,9.1,9.4,9.1v0h14.5v20.2c0,0.8,0.7,1.5,1.5,1.5h0.6c0.8,0,1.5-0.7,1.5-1.5v-22.5
	c0-0.8-0.7-1.5-1.5-1.5h-0.4h-0.2h-16v0c-3.1,0-5.5-2.4-5.5-5.3c0-2.9,2.5-5.3,5.5-5.3v0h34v0c0.2,0,0.5,0,0.7,0h0.5
	c0.2,0,0.4-0.1,0.6-0.1C488.4,197.5,491.6,193.9,491.6,189.5z"/>
<path fill="#00AEEF" stroke="#00AEEF" stroke-width="1.8749" stroke-linecap="round" stroke-linejoin="round" stroke-miterlimit="10" d="
	M71.1,85.1"/>
<path fill="#FFFFFF" d="M79,82.6c-0.4-0.4-1.1-0.5-1.7-0.4c-1.7,0.4-2.1,2.4-2.2,3.5c-0.2-0.1-0.4-0.2-0.5-0.2
	c-0.5-0.2-2.3-1.6-2.3-1.6c0.7-0.6,1.3-1.5,1.5-2c0.2-0.4,0.3-0.8,0.3-1.2c-0.1-1.5-1.3-2.2-2-2.5c-0.5-0.2-1-0.2-1.5,0
	c-0.7,0.2-1.7,0.8-1.9,1.9c-0.2,0.7,0,1.4,0.3,2c0.3,0.5,0.8,1.3,1.4,1.8c0,0-1.8,1.5-2.3,1.6c-0.1,0-0.3,0.1-0.5,0.2
	c-0.1-1-0.5-3.1-2.2-3.5c-0.6-0.1-1.2,0-1.7,0.4c-0.4,0.4-0.7,0.9-0.6,1.9c0.2,1.3,1.8,2,3.3,2.1l1.4,7.6l0.8,0l-1.1-7.7
	c0.3,0,0.5-0.1,0.7-0.2c1.6-0.7,3-2.1,3-2.1s1.4,1.5,3,2.1c0.2,0.1,0.5,0.2,0.7,0.2l-1.1,8l0.8-0.1l1.4-7.9c1.5-0.1,3.1-0.8,3.3-2.1
	C79.7,83.5,79.4,83,79,82.6z M66.1,85.3c0,0-1.2,0.1-1.7-0.4c-0.5-0.5-0.5-1-0.1-1.4c0.4-0.4,0.9-0.4,1.4,0.1
	C66.2,84.1,66.1,85.3,66.1,85.3z M71.3,82.9c0,0-1.2-1.1-1.2-2c0-0.9,0.6-1.4,1.2-1.4c0.7,0,1.2,0.6,1.2,1.5
	C72.5,81.8,71.3,82.9,71.3,82.9z M78.1,85c-0.5,0.5-1.7,0.4-1.7,0.4s0-1.2,0.4-1.7c0.5-0.5,1.1-0.5,1.4-0.1
	C78.6,83.9,78.5,84.5,78.1,85z"/>
<path fill="#FFFFFF" d="M70.7,43.1v-7.7c0-0.4,0.3-0.7,0.7-0.7h0c0.4,0,0.7,0.3,0.7,0.7v7.7c0,0.4-0.3,0.7-0.7,0.7h0
	C71,43.8,70.7,43.5,70.7,43.1z"/>
<path fill="#FFFFFF" d="M70.7,33.3v-1.9c0-0.4,0.3-0.7,0.7-0.7l0,0c0.4,0,0.7,0.3,0.7,0.7v1.9c0,0.4-0.3,0.7-0.7,0.7l0,0
	C71,34,70.7,33.7,70.7,33.3z"/>
<path fill="#FFFFFF" d="M83.3,45.7l3.9-6.6c0.2-0.3,0.6-0.4,0.9-0.2l0,0c0.3,0.2,0.4,0.6,0.2,0.9l-3.9,6.6c-0.2,0.3-0.6,0.4-0.9,0.2
	l0,0C83.2,46.4,83.1,46,83.3,45.7z"/>
<path fill="#FFFFFF" d="M88.3,37.3l0.2-0.3c0.2-0.3,0.6-0.4,0.9-0.2l0,0c0.3,0.2,0.4,0.6,0.2,0.9L89.5,38c-0.2,0.3-0.6,0.4-0.9,0.2
	l0,0C88.2,38,88.1,37.6,88.3,37.3z"/>
<path fill="#FFFFFF" d="M89.7,35.4l0.2-0.3c0.2-0.3,0.6-0.4,0.9-0.2l0,0c0.3,0.2,0.4,0.6,0.2,0.9l-0.2,0.3c-0.2,0.3-0.6,0.4-0.9,0.2
	l0,0C89.6,36.1,89.5,35.7,89.7,35.4z"/>
<path fill="#FFFFFF" d="M53.8,37.4L53.6,37c-0.2-0.3-0.6-0.4-0.9-0.2l0,0c-0.3,0.2-0.4,0.6-0.2,0.9l0.2,0.3c0.2,0.3,0.6,0.4,0.9,0.2
	h0C53.9,38.1,54,37.7,53.8,37.4z"/>
<path fill="#FFFFFF" d="M52.5,35.5l-0.2-0.3c-0.2-0.3-0.6-0.4-0.9-0.2l0,0c-0.3,0.2-0.4,0.6-0.2,0.9l0.2,0.3
	c0.2,0.3,0.6,0.4,0.9,0.2l0,0C52.6,36.2,52.7,35.8,52.5,35.5z"/>
<path fill="#FFFFFF" d="M91.5,52.4l6.9-3.4c0.3-0.2,0.7,0,0.9,0.3l0,0c0.2,0.3,0,0.7-0.3,0.9l-6.9,3.4c-0.3,0.2-0.7,0-0.9-0.3l0,0
	C91,53,91.1,52.6,91.5,52.4z"/>
<path fill="#FFFFFF" d="M36.7,62.8h7.7c0.4,0,0.7-0.3,0.7-0.7l0,0c0-0.4-0.3-0.7-0.7-0.7h-7.7c-0.4,0-0.7,0.3-0.7,0.7l0,0
	C36,62.5,36.3,62.8,36.7,62.8z"/>
<path fill="#FFFFFF" d="M46.4,62.8h0.9c0.4,0,0.7-0.3,0.7-0.7l0,0c0-0.4-0.3-0.7-0.7-0.7h-0.9c-0.4,0-0.7,0.3-0.7,0.7l0,0
	C45.7,62.5,46,62.8,46.4,62.8z"/>
<path fill="#FFFFFF" d="M104.6,62.8h-7.7c-0.4,0-0.7-0.3-0.7-0.7l0,0c0-0.4,0.3-0.7,0.7-0.7h7.7c0.4,0,0.7,0.3,0.7,0.7l0,0
	C105.3,62.5,105,62.8,104.6,62.8z"/>
<path fill="#FFFFFF" d="M94.9,62.8H94c-0.4,0-0.7-0.3-0.7-0.7l0,0c0-0.4,0.3-0.7,0.7-0.7h0.9c0.4,0,0.7,0.3,0.7,0.7l0,0
	C95.6,62.5,95.3,62.8,94.9,62.8z"/>
<path fill="#FFFFFF" d="M58.8,45.7L54.9,39c-0.2-0.3-0.6-0.4-0.9-0.2h0c-0.3,0.2-0.4,0.6-0.2,0.9l3.9,6.6c0.2,0.3,0.6,0.4,0.9,0.2
	l0,0C58.9,46.4,59,46,58.8,45.7z"/>
<path fill="#FFFFFF" d="M50.7,52.4L43.8,49c-0.3-0.2-0.7,0-0.9,0.3h0c-0.2,0.3,0,0.7,0.3,0.9l6.9,3.4c0.3,0.2,0.7,0,0.9-0.3h0
	C51.1,53,51,52.6,50.7,52.4z"/>
<path fill="#FFFFFF" d="M41.8,48.1l-1.9-1c-0.3-0.2-0.7,0-0.9,0.3l0,0c-0.2,0.3,0,0.7,0.3,0.9l1.9,1c0.3,0.2,0.7,0,0.9-0.3l0,0
	C42.3,48.7,42.1,48.3,41.8,48.1z"/>
<path fill="#FFFFFF" d="M100.2,48l1.9-1c0.3-0.2,0.7,0,0.9,0.3l0,0c0.2,0.3,0,0.7-0.3,0.9l-1.9,1c-0.3,0.2-0.7,0-0.9-0.3l0,0
	C99.7,48.6,99.8,48.2,100.2,48z"/>
<line fill="none" stroke="#FFFFFF" stroke-width="1.5" stroke-linecap="round" stroke-miterlimit="10" x1="63.7" y1="94.5" x2="66" y2="102.6"/>
<line fill="none" stroke="#FFFFFF" stroke-width="1.5" stroke-linecap="round" stroke-miterlimit="10" x1="78.5" y1="94.5" x2="76.2" y2="102.6"/>
<path fill="none" stroke="#FFFFFF" stroke-width="1.5" stroke-linecap="round" stroke-linejoin="round" stroke-miterlimit="10" d="
	M70.8,94.4h0.8h6.1c0,0,2.7,0,3-2.6c0.3-2.6,3.7-7.2,6.5-12.8c2.2-4.6,3.3-6.9,3.7-10c0.3-2.1,1.1-8.9-3.8-14.9
	c-5.8-7.1-14.9-7.3-16-7.3h-0.3c-1,0-10.1,0.2-16,7.3c-5,6-4.1,12.8-3.8,14.9c0.4,3.1,1.5,5.4,3.7,10c2.7,5.6,6.2,10.2,6.5,12.8
	c0.3,2.6,3,2.6,3,2.6h6.1h0.8"/>
<ellipse fill="none" stroke="#FFFFFF" stroke-width="1.6984" stroke-linecap="round" stroke-miterlimit="10" cx="71.1" cy="104.9" rx="7.1" ry="3.1"/>
<path fill="#FFFFFF" d="M71.1,108c0,0-6.2,0.2-7.9-3.1l2.2,10.4c0.3,1.2,1.3,2.1,2.6,2.1h3.1h3.1c1.2,0,2.3-0.9,2.6-2.1l2.2-10.4
	C77.2,108.2,71.1,108,71.1,108z"/>
<path fill="none" stroke="#FFFFFF" stroke-width="1.5" stroke-linecap="round" stroke-linejoin="round" stroke-miterlimit="10" d="
	M72.2,60.1c-0.4,0-0.8,0.1-1.1,0.2c-0.6-1.1-2.1-1.8-3.8-1.8c-2.3,0-4.1,1.2-4.1,2.8c-2.3,0-4.1,1.2-4.1,2.8s1.8,2.8,4.1,2.8
	c0.7,0,1.4-0.1,2-0.3c0.8,0.6,1.9,1,3.2,1c1.8,0,3.3-0.8,3.9-1.9c0,0,0,0,0,0c1.6,0,2.9-1.2,2.9-2.8C75.2,61.3,73.9,60.1,72.2,60.1z
	"/>
<path fill="none" stroke="#FFFFFF" stroke-width="1.5" stroke-linecap="round" stroke-linejoin="round" stroke-miterlimit="10" d="
	M83.6,67c0-1.4-1.6-2.6-3.7-2.8c-0.4-1.5-1.9-2.6-3.7-2.6c-2,0-3.7,1.4-3.9,3.2c-0.6-0.2-1.3-0.3-2-0.3c-2.8,0-5.1,1.5-5.1,3.5
	c0,1.9,2.3,3.5,5.1,3.5c0.5,0,1,0,1.4-0.1c0.9,0.9,2.5,1.5,4.2,1.5c2.7,0,4.9-1.4,5.1-3.2C82.5,69.2,83.6,68.2,83.6,67z"/>
</svg>
