<?xml version="1.0" encoding="utf-8"?>
<!-- Generator: Adobe Illustrator 19.1.0, SVG Export Plug-In . SVG Version: 6.00 Build 0)  -->
<!DOCTYPE svg PUBLIC "-//W3C//DTD SVG 1.1//EN" "http://www.w3.org/Graphics/SVG/1.1/DTD/svg11.dtd">
<svg version="1.1" id="Layer_1" xmlns="http://www.w3.org/2000/svg" xmlns:xlink="http://www.w3.org/1999/xlink" x="0px" y="0px"
	 viewBox="0 0 144 144" enable-background="new 0 0 144 144" xml:space="preserve">
<g>
	<path fill="#EF8C93" d="M72,72"/>
	<path fill="#0089A1" d="M21.7,72c0,27.8,22.5,50.3,50.2,50.3V21.7C44.2,21.7,21.7,44.2,21.7,72z"/>
	<path fill="#4B9FB5" d="M72,21.7C72,21.7,71.9,21.7,72,21.7l-0.1,100.7c0,0,0.1,0,0.1,0c27.8,0,50.3-22.5,50.3-50.3
		C122.3,44.2,99.8,21.7,72,21.7z"/>
	<path fill="#F1F2F2" d="M54.5,56.5v30.9c0,9.6,7.8,17.5,17.4,17.5V39C62.3,39.1,54.5,46.9,54.5,56.5z"/>
	<path fill="#FFFFFF" d="M72,39C72,39,71.9,39,72,39l-0.1,66c0,0,0.1,0,0.1,0c9.6,0,17.5-7.9,17.5-17.5V56.5
		C89.5,46.9,81.6,39,72,39z"/>
	<path fill="#A7A9AC" d="M76.4,92.4c-0.2-0.1-0.4-0.2-0.5-0.3c-0.3-0.2-0.5-0.5-0.7-0.8c-0.1-0.3-0.2-0.6-0.2-0.9
		c0-0.3,0-0.6,0.1-0.9c0.2-0.5,0.4-0.9,0.8-1.2c0.1-0.1,0.2-0.1,0.2-0.2c0,0,0,0,0,0c-0.3-0.5-0.8-0.8-1.3-0.9
		c-0.2-0.1-0.5-0.1-0.7-0.1c-0.2,0-0.5,0-0.7,0.1c-0.2,0.1-0.4,0.1-0.7,0.2c-0.2,0.1-0.3,0.1-0.5,0.2c-0.1,0-0.2,0-0.3,0v7.4
		c0,0,0.1,0,0.1,0c0.2,0,0.4,0,0.7,0.1c0.2,0,0.3,0.1,0.5,0.2c0.2,0.1,0.4,0.2,0.7,0.2c0.2,0,0.4,0,0.6-0.1c0.2-0.1,0.4-0.2,0.5-0.4
		c0.2-0.2,0.4-0.4,0.5-0.7c0.3-0.5,0.6-1,0.8-1.5C76.3,92.5,76.4,92.5,76.4,92.4C76.4,92.4,76.4,92.4,76.4,92.4z"/>
	<path fill="#939598" d="M71.9,87.5c-0.1,0-0.3-0.1-0.4-0.1c-0.2-0.1-0.4-0.2-0.7-0.2c-0.2-0.1-0.3-0.1-0.5-0.1c-0.2,0-0.3,0-0.5,0
		c-0.4,0.1-0.7,0.2-1,0.4c-0.5,0.3-0.8,0.8-1.1,1.3c-0.2,0.4-0.3,0.9-0.3,1.3c0,0.4,0,0.7,0.1,1.1c0.1,0.3,0.1,0.6,0.2,0.9
		c0.3,1,0.8,1.8,1.5,2.6c0.2,0.2,0.4,0.4,0.6,0.5c0.1,0.1,0.3,0.1,0.4,0.1c0.2,0,0.3,0,0.5,0c0.2,0,0.3-0.1,0.5-0.2
		c0.2-0.1,0.4-0.2,0.7-0.2L71.9,87.5C71.9,87.5,71.9,87.5,71.9,87.5z"/>
	<path fill="#A7A9AC" d="M74.1,84.4c0,0.1,0,0.3,0,0.4c0,0.3-0.1,0.6-0.2,0.8c-0.2,0.4-0.5,0.8-0.9,1c-0.2,0.1-0.4,0.2-0.7,0.3
		c-0.1,0-0.3,0-0.4,0c0,0,0,0,0,0c0-0.2,0-0.5,0.1-0.7c0.2-0.7,0.6-1.2,1.3-1.5c0.2-0.1,0.4-0.2,0.6-0.2C74,84.4,74,84.4,74.1,84.4z
		"/>
	<polygon fill="#65A8BC" points="42.2,86.6 48.4,92.4 71.9,67.6 71.9,55.4 	"/>
	<polygon fill="#9FD2D5" points="73.3,53.9 71.9,55.4 71.9,67.6 79.5,59.7 	"/>
	<path fill="#27273A" d="M82.2,52.3l0.9-2.6l-2.5,1C80.7,51.3,81.2,52.1,82.2,52.3z"/>
	<path fill="#E6E7E8" d="M79.8,59.2L79.8,59.2l2.4-6.9c-1-0.2-1.5-0.9-1.6-1.5l-6.8,2.8l0,0c-0.2,0.1-0.4,0.2-0.6,0.3
		c-0.5,0.5-0.5,1.4,0,1.9c0.3,0.3,0.7,0.4,1,0.3c0,0.4,0.1,0.8,0.4,1c0.3,0.3,0.7,0.4,1,0.3c0,0.4,0.1,0.8,0.4,1
		c0.3,0.3,0.7,0.4,1,0.3c0,0.4,0.1,0.8,0.4,1c0.5,0.5,1.4,0.5,1.9,0C79.6,59.6,79.7,59.4,79.8,59.2z"/>
	<path fill="#F3A9AB" d="M43.1,93.4l-1.6-1.5c-1.3-1.2-1.3-3.2-0.1-4.4l3.1-3.2l6.1,5.8l-3.1,3.2C46.3,94.6,44.4,94.6,43.1,93.4z"/>
	
		<rect x="44.8" y="83.1" transform="matrix(0.7236 0.6902 -0.6902 0.7236 72.6385 -10.1946)" fill="#D1D3D4" width="8.4" height="5"/>
</g>
</svg>
