<?xml version="1.0" encoding="utf-8"?>
<!-- Generator: Adobe Illustrator 19.1.0, SVG Export Plug-In . SVG Version: 6.00 Build 0)  -->
<!DOCTYPE svg PUBLIC "-//W3C//DTD SVG 1.1//EN" "http://www.w3.org/Graphics/SVG/1.1/DTD/svg11.dtd">
<svg version="1.1" id="Layer_1" xmlns="http://www.w3.org/2000/svg" xmlns:xlink="http://www.w3.org/1999/xlink" x="0px" y="0px"
	 viewBox="0 0 144 144" enable-background="new 0 0 144 144" xml:space="preserve">
<g>
	<path fill-rule="evenodd" clip-rule="evenodd" fill="#0489A1" d="M72,20.5c-28.5,0-51.5,23.1-51.5,51.5c0,28.5,23.1,51.5,51.5,51.5
		c28.5,0,51.5-23.1,51.5-51.5C123.5,43.5,100.5,20.5,72,20.5L72,20.5z M59.4,88.1l0-21.6h-8.1V56.4c6.1-1.7,11.3-8.2,13.3-15.1
		c0.7-3,0.8-5,0.8-5h11.5v18.4h13.4v11.6H76.8v6.7c0,4.5,0,9,0,13.5c0,12,11.5,7.1,12.5,6.8l3.3,10.9
		C89.8,107.4,59.4,114.8,59.4,88.1L59.4,88.1z M59.4,88.1"/>
</g>
</svg>
